<?xml version="1.0" encoding="UTF-8" standalone="no"?>
<svg
   xmlns:dc="http://purl.org/dc/elements/1.1/"
   xmlns:cc="http://creativecommons.org/ns#"
   xmlns:rdf="http://www.w3.org/1999/02/22-rdf-syntax-ns#"
   xmlns:svg="http://www.w3.org/2000/svg"
   xmlns="http://www.w3.org/2000/svg"
   xmlns:sodipodi="http://sodipodi.sourceforge.net/DTD/sodipodi-0.dtd"
   xmlns:inkscape="http://www.inkscape.org/namespaces/inkscape"
   version="1.1"
   id="svg2"
   xml:space="preserve"
   width="604.02667"
   height="536.40002"
   viewBox="0 0 604.02667 536.40002"
   sodipodi:docname="I love donation.eps"><metadata
     id="metadata8"><rdf:RDF><cc:Work
         rdf:about=""><dc:format>image/svg+xml</dc:format><dc:type
           rdf:resource="http://purl.org/dc/dcmitype/StillImage" /></cc:Work></rdf:RDF></metadata><defs
     id="defs6" /><sodipodi:namedview
     pagecolor="#ffffff"
     bordercolor="#666666"
     borderopacity="1"
     objecttolerance="10"
     gridtolerance="10"
     guidetolerance="10"
     inkscape:pageopacity="0"
     inkscape:pageshadow="2"
     inkscape:window-width="640"
     inkscape:window-height="480"
     id="namedview4" /><g
     id="g10"
     inkscape:groupmode="layer"
     inkscape:label="ink_ext_XXXXXX"
     transform="matrix(1.3333333,0,0,-1.3333333,0,536.4)"><g
       id="g12"
       transform="scale(0.1)"><path
         d="M 2178.92,594.641 1997.23,403.031 C 1971.72,376.129 1984.97,331.66 2021.08,323.23 2286.6,261.238 3356.5,-24.2188 3462.43,1.66016 c 18.39,4.5 813.38,846.62884 1054.03,1101.89984 28.26,29.98 10.22,79.29 -30.7,84.07 l -630.84,119.85 -1676,-712.839"
         style="fill:#ecdce6;fill-opacity:1;fill-rule:nonzero;stroke:none"
         id="path14" /><path
         d="m 2046.24,2518.69 c 1,-5.11 2.1,-10.2 3.4,-15.2 -100.7,-33.9 -210.6,-52.61 -321.4,-55.4 -71.1,-73.3 -137,-155.91 -194,-242.7 -25.7,-39.01 -49.5,-78.8 -71.1,-119.01 -150.8,-9.29 -302.7,10.31 -447,54.9 -246.995,76.41 -471.796,226.1 -631.796,429.51 7.898,10.9 15.801,21.9 23.703,32.79 84.496,116.7 168.894,233.41 253.394,350.11 -43.996,155.8 -38.5,318.2 26.797,466.29 65.207,148.11 183.203,272.31 327.712,345 75,37.81 158.09,62.11 241.89,59.61 18.4,-0.5 36.8,-2.41 54.9,-5.8 64.8,-11.7 126.4,-41.1 171.9,-88.2 80.4,-83.21 100.7,-211 78.3,-324.5 -22.4,-113.61 -81.8,-216.01 -144.2,-313.51 -16,-25.1 -32.5,-50.2 -51.2,-73.3 25.2,-61.39 89,-110.39 157.2,-116.5 79.9,-7.1 156.8,31.71 213.9,89.51 33.3,-44.51 85.6,-76.01 141,-84.2 63.2,-9.4 126.31,8.39 181,42.1 -7.3,-13.71 -13.9,-27.61 -19.8,-41.5 -39,-91.11 -48.9,-185.6 -23.8,-271.6 l 0.1,-0.5 29.1,-117.9"
         style="fill:#fcfdff;fill-opacity:1;fill-rule:nonzero;stroke:none"
         id="path16" /><path
         d="m 1087.84,3389.18 c -44,2.71 -87.6,13.11 -127.996,30.7"
         style="fill:none;stroke:#823430;stroke-width:20;stroke-linecap:round;stroke-linejoin:round;stroke-miterlimit:10;stroke-dasharray:none;stroke-opacity:1"
         id="path18" /><path
         d="m 1887.84,3314.88 c -25.9,-96.59 -53.2,-195.2 -110.8,-276.79 -11.4,-16.2 -24.3,-31.61 -38.4,-45.8 -57.1,-57.8 -134,-96.61 -213.9,-89.51 -68.2,6.11 -132,55.11 -157.2,116.5 18.7,23.1 35.2,48.2 51.2,73.3 62.4,97.5 121.8,199.9 144.2,313.51 22.4,113.5 2.1,241.29 -78.3,324.5 -45.5,47.1 -107.1,76.5 -171.9,88.2 45.1,114.39 173,194.5 298.3,185.3 87.2,-6.3 167.6,-50.91 226.5,-115.8 40.7,-44.8 71.1,-99.2 86.6,-157.5 36.2,-136.11 0.2,-279.91 -36.3,-415.91"
         style="fill:#fcfdff;fill-opacity:1;fill-rule:nonzero;stroke:none"
         id="path20" /><path
         d="m 2330.24,3631.09 c 0.61,-95.1 -20.3,-189 -43.2,-281.3 -17.1,-68.8 -36,-138.5 -64.9,-202.9 -0.79,-2.01 -1.7,-4 -2.7,-6.01 -15.4,-33.7 -33.7,-65.9 -55.9,-95.8 -27.8,-37.3 -63.1,-70.29 -102.9,-94.89 -54.69,-33.71 -117.8,-51.5 -181,-42.1 -55.4,8.19 -107.7,39.69 -141,84.2 14.1,14.19 27,29.6 38.4,45.8 57.6,81.59 84.9,180.2 110.8,276.79 36.5,136 72.5,279.8 36.3,415.91 -15.5,58.3 -45.9,112.7 -86.6,157.5 27.6,63.7 91.9,112.9 162.1,122.59 94.3,13.01 190.4,-36.39 248.5,-111.7 8.5,-11.09 16.3,-22.59 23.3,-34.59 41.11,-69.4 58.4,-152.41 58.8,-233.5"
         style="fill:#fcfdff;fill-opacity:1;fill-rule:nonzero;stroke:none"
         id="path22" /><path
         d="m 2724.65,2971.99 c -18.91,-68.1 -71.11,-130.91 -140.51,-143.5 -53.8,-9.71 -109.4,11.79 -152.39,45.4 -43.01,33.6 -75.71,78.4 -107.71,122.7 -8.09,11.19 -16.2,22.3 -24.2,33.49 -8.49,11.6 -16.9,23.21 -25.3,34.8 -18.3,25.31 -36.7,50.71 -55.1,76 1,2.01 1.91,4 2.7,6.01 28.9,64.4 47.8,134.1 64.9,202.9 22.9,92.3 43.81,186.2 43.2,281.3 -0.4,81.09 -17.69,164.1 -58.8,233.5 37.41,10.8 81.11,5.7 116.2,-12.5 57.1,-29.5 96,-84.61 129.3,-139.61 71.6,-118.09 127.8,-245.39 167,-377.69 9.91,-33.01 18.7,-66.41 26.3,-100 3.8,-16.3 7.2,-32.7 10.4,-49.11 0.31,-1.29 0.5,-2.59 0.8,-3.9 13.4,-69.3 22.1,-141.8 3.21,-209.79"
         style="fill:#fcfdff;fill-opacity:1;fill-rule:nonzero;stroke:none"
         id="path24" /><path
         d="m 2050.04,2503.69 c -0.1,-0.2 -0.2,-0.2 -0.4,-0.2"
         style="fill:#c29a90;fill-opacity:1;fill-rule:nonzero;stroke:none"
         id="path26" /><path
         d="m 1098.04,2648.98 c 163.4,-142.7 398.7,-206.69 630.2,-200.89"
         style="fill:none;stroke:#823430;stroke-width:20;stroke-linecap:round;stroke-linejoin:round;stroke-miterlimit:10;stroke-dasharray:none;stroke-opacity:1"
         id="path28" /><path
         d="m 1415.24,1878.78 c -100.1,-19.29 -224,-5.8 -353.89,28.21 -376.909,98.8 -804.108,370.59 -846.006,517.29 -56.496,197.31 192.703,179.3 192.703,179.3 -7.902,-10.89 -15.805,-21.89 -23.703,-32.79 182.398,-232.01 449.297,-394.1 737.096,-457.2 112.01,-24.6 227.1,-34.31 341.7,-27.21 21.6,40.21 45.4,80 71.1,119.01 71.4,-91.4 168,-271.3 -119,-326.61"
         style="fill:#f7b6c2;fill-opacity:1;fill-rule:nonzero;stroke:none"
         id="path30" /><path
         d="m 3161.84,2977.29 c 3.8,-192.9 -142.19,-405.51 -379.5,-524.2 -267.69,-133.81 -561.3,-102.81 -700,61.99 -16.39,19.41 -30.6,40.71 -42.3,63.9 -0.4,0.61 -0.8,1.3 -1.1,2.01 -9,17.99 -16.3,36.59 -21.8,55.6 l -0.1,0.5 c -24.8,85 -15.4,178.3 22.4,268.39 6.3,15 13.4,29.91 21.2,44.71 39.8,24.6 75.1,57.59 102.9,94.89 22.2,29.9 40.5,62.1 55.9,95.8 18.4,-25.29 36.8,-50.69 55.1,-76 -55.4,-51.79 -97.2,-111.19 -122.3,-172.3 -1.8,-4.29 -3.5,-8.69 -5.1,-12.99 0,0 -0.1,0 -0.1,-0.1 -30.9,-82.71 -31.4,-167.8 5.5,-241.71 87.3,-174.6 350.5,-219.89 588.1,-101.19 237.5,118.69 359.3,356.5 272,531.1 -18.3,36.59 -44.4,67.5 -76.29,92.39 -38.51,30.11 -85.61,51.51 -138,63.41 -28.01,6.49 -57.61,10.3 -88.11,11.3 -7.6,33.59 -16.39,66.99 -26.3,100 40.4,2.39 79.91,1 117.7,-3.91 145.4,-18.59 266.2,-89.59 324.6,-206.49 7.4,-14.8 13.6,-30 18.7,-45.5 l 0.6,-2.21 10.9,-43.89 0.1,-0.61 c 3.2,-18.09 5,-36.39 5.3,-54.89"
         style="fill:#ffcd63;fill-opacity:1;fill-rule:nonzero;stroke:none"
         id="path32" /><path
         d="m 3156.44,3032.79 -10.9,43.89 c 4.6,-14.3 8.2,-29.1 10.9,-43.89"
         style="fill:#c29a90;fill-opacity:1;fill-rule:nonzero;stroke:none"
         id="path34" /><path
         d="m 2819.04,2303.98 c -300.3,-150.1 -633.09,-92.79 -743.4,127.91 -8.6,17.2 -15.6,34.89 -21,52.99 l -4.6,18.81 -3.8,15 -29.1,117.9 c 5.5,-19.01 12.8,-37.61 21.8,-55.6 0.3,-0.71 0.7,-1.4 1.1,-2.01 11.7,-23.19 25.91,-44.49 42.3,-63.9 138.7,-164.8 432.31,-195.8 700,-61.99 237.31,118.69 383.3,331.3 379.5,524.2 -0.3,18.5 -2.1,36.8 -5.3,54.89 l 27.5,-110.19 c 64.1,-213.61 -88.3,-479.7 -365,-618.01"
         style="fill:#d48e5c;fill-opacity:1;fill-rule:nonzero;stroke:none"
         id="path36" /><path
         d="m 2054.64,2484.88 c -1.9,6.11 -3.6,12.3 -5,18.61 -1.3,5 -2.4,10.09 -3.4,15.2 l 3.8,-15 4.6,-18.81"
         style="fill:#c29a90;fill-opacity:1;fill-rule:nonzero;stroke:none"
         id="path38" /><path
         d="m 2740.64,2536.59 c -237.6,-118.7 -500.8,-73.41 -588.1,101.19 -36.9,73.91 -36.4,159 -5.5,241.71 0,0.1 0.1,0.1 0.1,0.1 1.6,4.3 3.3,8.7 5.1,12.99 25.1,61.11 66.9,120.51 122.3,172.3 8.4,-11.59 16.81,-23.2 25.3,-34.8 8,-11.19 16.11,-22.3 24.2,-33.49 32,-44.3 64.7,-89.1 107.71,-122.7 42.99,-33.61 98.59,-55.11 152.39,-45.4 69.4,12.59 121.6,75.4 140.51,143.5 18.89,67.99 10.19,140.49 -3.21,209.79 -0.3,1.31 -0.49,2.61 -0.8,3.9 -3.2,16.41 -6.6,32.81 -10.4,49.11 30.5,-1 60.1,-4.81 88.11,-11.3 52.39,-11.9 99.49,-33.3 138,-63.41 31.89,-24.89 57.99,-55.8 76.29,-92.39 87.3,-174.6 -34.5,-412.41 -272,-531.1"
         style="fill:#fde681;fill-opacity:1;fill-rule:nonzero;stroke:none"
         id="path40" /><path
         d="m 2054.94,2483.69 -0.3,1.19"
         style="fill:#c29a90;fill-opacity:1;fill-rule:nonzero;stroke:none"
         id="path42" /><path
         d="m 3325.64,1961.88 -549.1,-491.7 c -25,-22.39 -63.4,-20.29 -85.8,4.71 -10.4,11.6 -15.5,25.99 -15.5,40.4 0,16.7 6.91,33.4 20.3,45.4 l 549,491.8 c 25,22.29 63.5,20.19 85.8,-4.81 10.4,-11.59 15.51,-26.09 15.51,-40.5 0,-16.7 -6.81,-33.3 -20.21,-45.3 z m -283.3,371.01 -1231.8,-924.7 1207.1,-229.41 1154.11,1002.31 -1129.41,151.8"
         style="fill:#bae3ec;fill-opacity:1;fill-rule:nonzero;stroke:none"
         id="path44" /><path
         d="m 3017.64,1178.78 -7.1,-237.69 -56.4,10.101 -1014.5,182.099 -76.1,13.7 -53,261.2 1207.1,-229.41"
         style="fill:#bae3ec;fill-opacity:1;fill-rule:nonzero;stroke:none"
         id="path46" /><path
         d="m 4171.75,2181.09 -63.51,-268.2 -78.19,-69.2 -1019.51,-902.6 7.1,237.69 1154.11,1002.31"
         style="fill:#7acdd4;fill-opacity:1;fill-rule:nonzero;stroke:none"
         id="path48" /><path
         d="m 2954.14,951.191 v -712.41 l -807.1,164.699 -207.4,729.81 1014.5,-182.099"
         style="fill:#fff4f2;fill-opacity:1;fill-rule:nonzero;stroke:none"
         id="path50" /><path
         d="m 2954.14,951.191 v 0.09"
         style="fill:#c29a90;fill-opacity:1;fill-rule:nonzero;stroke:none"
         id="path52" /><path
         d="m 4030.05,1843.69 -64.2,-590.8 L 2954.14,238.781 v 712.41 l 56.4,-10.101 1019.51,902.6"
         style="fill:#ecdce6;fill-opacity:1;fill-rule:nonzero;stroke:none"
         id="path54" /><path
         d="m 3077.95,3411.48 c -10.31,4.81 -20.31,10 -30.11,15.81 -87.39,51.69 -151.4,142.3 -169.3,242.3 -7,38.7 -3.49,86.09 30.2,106.4 28.41,17.1 67.11,5.49 90.8,-17.81 14.8,-14.59 25.11,-32.59 33.6,-51.7 0,-0.09 0.1,-0.29 0.21,-0.39 4.09,-9.31 7.79,-18.91 11.3,-28.4 0.8,-2.1 1.49,-4.2 2.29,-6.3 v 0.79 c 0.3,29.41 -2.29,60 9.5,86.91 11.8,27.2 38,50.3 67.6,49.2 22.9,-1 43.4,-16.2 55.5,-35.6 12.1,-19.4 17,-42.4 19.6,-65.1 12.1,-108.1 -45.6,-217.8 -121.19,-296.11"
         style="fill:#f7b6c2;fill-opacity:1;fill-rule:nonzero;stroke:none"
         id="path56" /><path
         d="m 3854.54,2481.89 c -1.8,-14.6 -8.9,-27.1 -17.1,-38.2 -39.09,-52.81 -115.9,-70.2 -188.7,-64.8 -5.1,10.9 -9.4,21.99 -12.79,33.2 -20.31,64.19 -14.71,131.4 16.2,181 12.59,20.2 34.49,38.9 60.8,30.2 22.19,-7.3 37.79,-32.3 40.4,-54.6 2.69,-22.3 -4.41,-42.5 -11.51,-61.91 0.5,0.51 1,1 1.4,1.51 12.21,12.19 23.6,25.99 40.61,31.39 17.69,5.51 41.29,2.01 56.39,-13.8 11.7,-12.19 16.11,-29.4 14.3,-43.99"
         style="fill:#f7b6c2;fill-opacity:1;fill-rule:nonzero;stroke:none"
         id="path58" /><path
         d="m 3496.35,3352.38 c -1.01,-12.4 -6.3,-24.2 -12.61,-35 -29.8,-51.5 -91,-80.99 -149.8,-90.79 -4.1,7.5 -7.7,15.3 -10.7,23.39 -18.8,49.7 -16.6,107.4 7,155.21 9.6,19.2 26.6,38.99 48,36.9 18.11,-1.7 31.41,-19.4 34.2,-37.41 2.8,-18 -2.39,-36.09 -7.5,-53.59 0.91,1.29 1.9,2.5 2.8,3.79 8.8,11.9 17.4,24.4 30,31.71 14.1,8.09 33.21,9.7 45.8,-0.4 9.7,-7.9 13.8,-21.31 12.81,-33.81"
         style="fill:#f7b6c2;fill-opacity:1;fill-rule:nonzero;stroke:none"
         id="path60" /><path
         d="m 3345.85,2007.18 c 0,-16.7 -6.81,-33.3 -20.21,-45.3 l -549.1,-491.7 c -25,-22.39 -63.4,-20.29 -85.8,4.71 -10.4,11.6 -15.5,25.99 -15.5,40.4 0,16.7 6.91,33.4 20.3,45.4 l 549,491.8 c 25,22.29 63.5,20.19 85.8,-4.81 10.4,-11.59 15.51,-26.09 15.51,-40.5"
         style="fill:#00656e;fill-opacity:1;fill-rule:nonzero;stroke:none"
         id="path62" /><path
         d="m 2214.84,2387.6 c 3.48,-24.71 6.95,-49.42 10.43,-74.14"
         style="fill:none;stroke:#823430;stroke-width:20;stroke-linecap:round;stroke-linejoin:round;stroke-miterlimit:10;stroke-dasharray:none;stroke-opacity:1"
         id="path64" /><path
         d="m 2276.55,2362.9 c 4.7,-26.48 9.4,-52.95 14.09,-79.42"
         style="fill:none;stroke:#823430;stroke-width:20;stroke-linecap:round;stroke-linejoin:round;stroke-miterlimit:10;stroke-dasharray:none;stroke-opacity:1"
         id="path66" /><path
         d="m 2346.23,2341.82 c 2.94,-23.53 5.88,-47.06 8.82,-70.59"
         style="fill:none;stroke:#823430;stroke-width:20;stroke-linecap:round;stroke-linejoin:round;stroke-miterlimit:10;stroke-dasharray:none;stroke-opacity:1"
         id="path68" /><path
         d="m 2157.7,2412.2 c 3.74,-22.9 7.47,-45.81 11.21,-68.72"
         style="fill:none;stroke:#823430;stroke-width:20;stroke-linecap:round;stroke-linejoin:round;stroke-miterlimit:10;stroke-dasharray:none;stroke-opacity:1"
         id="path70" /><path
         d="m 2476.38,2339.99 c 2.49,-27.05 4.97,-54.1 7.45,-81.15"
         style="fill:none;stroke:#823430;stroke-width:20;stroke-linecap:round;stroke-linejoin:round;stroke-miterlimit:10;stroke-dasharray:none;stroke-opacity:1"
         id="path72" /><path
         d="m 1319.65,3580.27 c 46.17,26.21 102.83,33.28 154.02,19.23"
         style="fill:none;stroke:#823430;stroke-width:20;stroke-linecap:round;stroke-linejoin:round;stroke-miterlimit:10;stroke-dasharray:none;stroke-opacity:1"
         id="path74" /><path
         d="m 1716.25,3735.4 c 18.61,23 45.92,38.78 75.13,43.42 29.22,4.63 60.07,-1.92 84.88,-18.03"
         style="fill:none;stroke:#823430;stroke-width:20;stroke-linecap:round;stroke-linejoin:round;stroke-miterlimit:10;stroke-dasharray:none;stroke-opacity:1"
         id="path76" /><path
         d="m 2113.37,3776.72 c 12,22.33 33.7,39.23 58.29,45.39 24.59,6.17 51.69,1.51 72.81,-12.52"
         style="fill:none;stroke:#823430;stroke-width:20;stroke-linecap:round;stroke-linejoin:round;stroke-miterlimit:10;stroke-dasharray:none;stroke-opacity:1"
         id="path78" /><path
         d="m 3662.53,1172.07 c -11.85,90.7 -67.56,144.65 -124.45,120.5 -56.88,-24.15 -93.39,-117.25 -81.55,-207.97 11.84,-90.702 67.55,-144.651 124.43,-120.498 56.89,24.148 93.4,117.258 81.57,207.968 z"
         style="fill:none;stroke:#823430;stroke-width:20;stroke-linecap:round;stroke-linejoin:round;stroke-miterlimit:10;stroke-dasharray:none;stroke-opacity:1"
         id="path80" /><path
         d="m 3516.49,1057.93 3.32,-2.06 c 33.12,-20.45 71.83,-2.61 95.25,43.91 v 0"
         style="fill:none;stroke:#823430;stroke-width:20;stroke-linecap:round;stroke-linejoin:round;stroke-miterlimit:10;stroke-dasharray:none;stroke-opacity:1"
         id="path82" /><path
         d="m 3533.19,1138.15 c 1.15,-8.86 -2.41,-17.95 -7.97,-20.31 -5.54,-2.36 -10.98,2.91 -12.15,11.76 -1.15,8.86 2.42,17.95 7.97,20.32 5.56,2.35 11,-2.91 12.15,-11.77"
         style="fill:#823430;fill-opacity:1;fill-rule:nonzero;stroke:none"
         id="path84" /><path
         d="m 3594.34,1164.12 c 1.17,-8.87 -2.4,-17.96 -7.96,-20.32 -5.55,-2.36 -10.99,2.91 -12.15,11.77 -1.16,8.86 2.41,17.95 7.97,20.31 5.55,2.36 10.99,-2.91 12.14,-11.76"
         style="fill:#823430;fill-opacity:1;fill-rule:nonzero;stroke:none"
         id="path86" /><path
         d="m 3522.07,1272.36 c 13.67,-13.92 32.91,-12.9 46.98,2.48 6.45,7.04 11.88,17.03 14.5,28.77 2.63,11.73 2.22,25.21 -1.87,35.17 -4.09,9.98 -12.02,15.71 -19.49,12.87 -4.98,-1.89 -9.71,-8 -10.82,-16.05 -1.09,-8.05 2.59,-17.08 7.64,-16.75"
         style="fill:none;stroke:#823430;stroke-width:20;stroke-linecap:round;stroke-linejoin:round;stroke-miterlimit:10;stroke-dasharray:none;stroke-opacity:1"
         id="path88" /><path
         d="m 2049.64,2503.49 c -100.7,-33.9 -210.6,-52.61 -321.4,-55.4 -71.1,-73.3 -137,-155.91 -194,-242.7 -25.7,-39.01 -49.5,-78.8 -71.1,-119.01 -150.8,-9.29 -302.7,10.31 -447,54.9 95,124.11 276.8,363.4 276.8,377.41 0,18.89 530.8,0.09 724.2,353 7.7,13.99 15.6,26.29 23.7,37 -39,-91.11 -48.9,-185.6 -23.8,-271.6 l 0.1,-0.5 29.1,-117.9 c 1,-5.11 2.1,-10.2 3.4,-15.2"
         style="fill:#ecdce6;fill-opacity:1;fill-rule:nonzero;stroke:none"
         id="path90" /><path
         d="m 1068.62,3334.41 c 0,0 8.82,-325.59 153.87,-320.36 145.05,5.23 333.98,540 333.98,540 0,0 91.76,-162.16 -172.94,-513.43 0,0 240.82,-132.45 351.59,75.79 110.76,208.23 195.46,571.76 195.46,571.76 0,0 70.59,-280.62 -98.82,-611.49 0,0 -2.77,-66.16 58.61,-76.74 61.39,-10.59 304.07,-14.12 385.67,532.94 l 32.19,224.96 c 0,0 116.59,-152.88 -17.59,-531.27 0,0 -28.29,-132.81 95.24,-301.49 l -91.77,113.68 -74.67,102.12 c 0,0 -128.86,-262.8 -315.92,-234.22 l -68.23,13.28 -96.65,72.35 c 0,0 -123.35,-131.5 -250.41,-87.81 -127.06,43.69 -120.69,114.8 -120.69,114.8 0,0 -93.43,-140.52 -222.84,-82.87 -129.41,57.64 -116.62,235.29 -116.62,235.29 l 40.54,162.71"
         style="fill:#ecdce6;fill-opacity:1;fill-rule:nonzero;stroke:none"
         id="path92" /><path
         d="m 2005.76,2941.82 c -7.59,-30.85 -37.82,-50.7 -67.74,-61.38 -63.73,-22.74 -133.76,-7.18 -193.09,25.36 -111.86,-66.42 -267.68,-52.36 -369.98,28.01 -41.35,-24.28 -83.44,-48.86 -129.98,-60.43 -46.54,-11.57 -99.01,-8.5 -138.09,19.31 -39.07,27.8 -59.21,84.07 -36.88,126.52 37.92,-22.35 76,-42.54 120.02,-42.89 44.01,-0.34 133.64,31.2 177.52,34.65 48.05,3.77 50.42,-21.12 98.61,-20.85 47.43,0.27 94.86,0.53 142.3,0.8 51.4,0.29 102.89,0.57 154.1,-3.86 42.85,-3.71 85.34,-10.72 127.78,-17.71 37.24,-6.14 78.19,-21.39 115.43,-27.53"
         style="fill:#ecdce6;fill-opacity:1;fill-rule:nonzero;stroke:none"
         id="path94" /><path
         d="m 1415.24,1878.78 c -100.1,-19.29 -224,-5.8 -353.89,28.21 31.09,16.39 56.79,42.9 70,75.59 16.99,42.1 11.89,91.3 -9.91,131.01 112.01,-24.6 227.1,-34.31 341.7,-27.21 21.6,40.21 45.4,80 71.1,119.01 71.4,-91.4 168,-271.3 -119,-326.61"
         style="fill:#f59b9c;fill-opacity:1;fill-rule:nonzero;stroke:none"
         id="path96" /><path
         d="m 2801.64,3330.88 c -0.1,-3.59 -0.2,-7.19 -0.29,-10.69 -1.01,-32.21 -1.91,-64.4 -3,-96.7 -1.11,-37.2 -2.21,-74.4 -3.41,-111.6 -1.9,-63.1 -4.8,-129.4 -37.7,-183.31 -48.7,-79.69 -151.79,-110.4 -245.09,-105.49 -93.3,5 -182.41,38.39 -273.7,57.99 -28.91,6.21 -57.41,9.8 -86.21,11.5 -18.2,1.2 -36.5,1.7 -55.1,1.61 -23.29,-0.1 -43.1,-1.9 -57.7,11.29 6.3,15 13.4,29.91 21.2,44.71 39.8,24.6 75.1,57.59 102.9,94.89 22.2,29.9 40.5,62.1 55.9,95.8 18.4,-25.29 36.8,-50.69 55.1,-76 8.4,-11.59 16.81,-23.2 25.3,-34.8 8,-11.19 16.11,-22.3 24.2,-33.49 32,-44.3 64.7,-89.1 107.71,-122.7 42.99,-33.61 98.59,-55.11 152.39,-45.4 69.4,12.59 121.6,75.4 140.51,143.5 18.89,67.99 10.19,140.49 -3.21,209.79 -0.3,1.31 -0.49,2.61 -0.8,3.9 -3.2,16.41 -6.6,32.81 -10.4,49.11 -7.6,33.59 -16.39,66.99 -26.3,100 40.4,2.39 79.91,1 117.7,-3.91"
         style="fill:#d48e5c;fill-opacity:1;fill-rule:nonzero;stroke:none"
         id="path98" /><path
         d="m 1367.54,1047.49 c 0,-96.49 -306.13,-174.709 -683.767,-174.709 -377.636,0 -683.77690625,78.219 -683.77690625,174.709 0,96.48 306.14090625,174.7 683.77690625,174.7 377.637,0 683.767,-78.22 683.767,-174.7"
         style="fill:#ecdce6;fill-opacity:1;fill-rule:nonzero;stroke:none"
         id="path100" /><path
         d="m 670.59,2620.75 c 0,-15.59 -12.645,-28.23 -28.238,-28.23 -15.594,0 -28.239,12.64 -28.239,28.23 0,15.59 12.645,28.23 28.239,28.23 15.593,0 28.238,-12.64 28.238,-28.23"
         style="fill:#ecdce6;fill-opacity:1;fill-rule:nonzero;stroke:none"
         id="path102" /><path
         d="m 676.875,2720.35 c 0,-9.53 -7.73,-17.26 -17.262,-17.26 -9.531,0 -17.261,7.73 -17.261,17.26 0,9.53 7.73,17.26 17.261,17.26 9.532,0 17.262,-7.73 17.262,-17.26"
         style="fill:#ecdce6;fill-opacity:1;fill-rule:nonzero;stroke:none"
         id="path104" /><path
         d="m 1939.64,1133.29 44.37,-156.118 970.1,-183.113 0.03,157.132 -1014.5,182.099"
         style="fill:#ecdce6;fill-opacity:1;fill-rule:nonzero;stroke:none"
         id="path106" /><path
         d="m 3077.95,3411.48 c -10.31,4.81 -20.31,10 -30.11,15.81 29.2,22.1 51.1,52.8 65.9,86.09 21.4,48.4 29.21,101.5 36.71,153.91 2.19,15.19 4.39,30.8 1.59,45.89 -2.7,15.11 -11.19,30.11 -25.1,36.61 -22.2,10.19 -49.5,-5.3 -60.7,-27 -11.3,-21.7 -10.9,-47.31 -10.1,-71.8 -3.1,6.99 -6.2,14.1 -9.2,21.19 0.3,29.41 -2.29,60 9.5,86.91 11.8,27.2 38,50.3 67.6,49.2 22.9,-1 43.4,-16.2 55.5,-35.6 12.1,-19.4 17,-42.4 19.6,-65.1 12.1,-108.1 -45.6,-217.8 -121.19,-296.11"
         style="fill:#f59b9c;fill-opacity:1;fill-rule:nonzero;stroke:none"
         id="path108" /><path
         d="m 2895.97,3687.48 c 0.43,-3.62 1.2,-7.32 3.24,-10.34 2.04,-3.02 5.61,-5.23 9.23,-4.76 4.06,0.54 7.06,4.26 8.26,8.18 1.2,3.92 1.04,8.1 1.34,12.19 1.25,16.67 11.08,32.48 25.48,40.98 4.24,2.5 8.89,4.45 12.55,7.73 3.66,3.3 6.22,8.48 4.66,13.15 -1.61,4.85 -7.18,7.46 -12.28,7.32 -33.56,-0.99 -55.92,-45.43 -52.48,-74.45"
         style="fill:#fdeeef;fill-opacity:1;fill-rule:nonzero;stroke:none"
         id="path110" /><path
         d="m 3496.35,3352.38 c -1.01,-12.4 -6.3,-24.2 -12.61,-35 -29.8,-51.5 -91,-80.99 -149.8,-90.79 -4.1,7.5 -7.7,15.3 -10.7,23.39 8.8,2.11 18.2,3.31 26.41,6.11 30.99,10.5 60,27.09 84.79,48.59 6.7,5.8 13.2,12.21 16.7,20.3 3.51,8.11 3.3,18.4 -2.6,25 -5.3,5.9 -14,7.6 -21.9,6.41 -7.79,-1.2 -15,-5 -21.99,-8.7 0.99,2.39 1.99,4.79 3.09,7.19 8.8,11.9 17.4,24.4 30,31.71 14.1,8.09 33.21,9.7 45.8,-0.4 9.7,-7.9 13.8,-21.31 12.81,-33.81"
         style="fill:#f59b9c;fill-opacity:1;fill-rule:nonzero;stroke:none"
         id="path112" /><path
         d="m 3854.54,2481.89 c -1.8,-14.6 -8.9,-27.1 -17.1,-38.2 -39.09,-52.81 -115.9,-70.2 -188.7,-64.8 -5.1,10.9 -9.4,21.99 -12.79,33.2 6.09,-0.5 11.89,-1.1 16.29,-0.9 40.9,1.9 81.4,12.59 117.81,31.3 10.49,5.4 21.09,11.79 27.99,21.4 7.01,9.6 9.7,23.2 3.71,33.49 -5.61,9.71 -17.71,14.31 -29.01,14.01 -11.3,-0.2 -22,-4.4 -32.5,-8.5 1,1.79 2,3.59 3,5.4 12.21,12.19 23.6,25.99 40.61,31.39 17.69,5.51 41.29,2.01 56.39,-13.8 11.7,-12.19 16.11,-29.4 14.3,-43.99"
         style="fill:#f59b9c;fill-opacity:1;fill-rule:nonzero;stroke:none"
         id="path114" /><path
         d="m 3365.42,3392.89 c -2.58,1.99 -7.32,2.29 -9.54,-0.57 -4.88,-6.23 -8.68,-12.8 -11.6,-20.16 -2.76,-6.96 -5.47,-15.45 -3.46,-22.85 0.71,-2.63 3.03,-4.54 5.68,-4.9 2.44,-0.32 5.73,0.81 6.81,3.27 0.81,1.85 1.7,3.62 2.05,5.62 0.28,1.61 0.48,3.23 0.79,4.83 0.62,3.2 1.47,6.35 2.55,9.42 0.26,0.77 0.55,1.54 0.84,2.29 0.12,0.3 0.23,0.59 0.35,0.88 0.03,0.08 0.02,0.05 0.06,0.14 0.68,1.48 1.38,2.96 2.14,4.4 1.53,2.88 3.28,5.62 5.19,8.26 2.14,2.92 0.75,7.36 -1.86,9.37"
         style="fill:#fdeeef;fill-opacity:1;fill-rule:nonzero;stroke:none"
         id="path116" /><path
         d="m 3691.44,2597.92 c -13.87,-12.05 -25.04,-27.06 -32.97,-43.63 -3.95,-8.28 -7.22,-16.86 -9.57,-25.74 -1.17,-4.48 -2.13,-9.02 -2.87,-13.59 -0.81,-5.12 -2.31,-11.07 -0.28,-16.05 2.92,-7.14 12.28,-9.39 16.78,-2.2 2.46,3.94 2.54,8.36 3.24,12.81 0.66,4.09 1.49,8.15 2.51,12.17 1.98,7.86 4.57,15.7 7.89,23.1 6.77,15.09 16.04,29 27.21,41.2 7.39,8.07 -3.76,19.03 -11.94,11.93"
         style="fill:#fdeeef;fill-opacity:1;fill-rule:nonzero;stroke:none"
         id="path118" /><path
         d="m 2777.62,2777.96 c -65.11,-56.27 -125.12,-107.15 -208.73,-134.02 -78.34,-25.17 -168.38,-32.3 -248.49,-11.65 -35.98,9.28 -51.07,-45.45 -15.33,-55.63 178.95,-51.01 418.15,-7.97 524.08,161.53 20.66,33.08 -24.46,63.17 -51.53,39.77"
         style="fill:#fcfdff;fill-opacity:1;fill-rule:nonzero;stroke:none"
         id="path120" /><path
         d="m 2908.26,2953.55 c -9.86,5.77 -26.38,5.22 -33.97,-4.38 -13.83,-17.5 -21.8,-37.35 -30.97,-57.51 -6.75,-14.85 -4.25,-32.52 10.84,-41.34 13.19,-7.72 34.26,-3.94 41.34,10.84 9.32,19.49 21.26,39.43 25.64,60.74 2.53,12.28 -1.68,25.09 -12.88,31.65"
         style="fill:#fcfdff;fill-opacity:1;fill-rule:nonzero;stroke:none"
         id="path122" /><path
         d="m 2046.24,2518.69 c 1,-5.11 2.1,-10.2 3.4,-15.2 -100.7,-33.9 -210.6,-52.61 -321.4,-55.4 -71.1,-73.3 -137,-155.91 -194,-242.7 -25.7,-39.01 -49.5,-78.8 -71.1,-119.01 -409.1,-25.19 -825.398,162.2 -1078.796,484.41 7.898,10.9 15.801,21.9 23.703,32.79 84.496,116.7 168.894,233.41 253.394,350.11 -43.996,155.8 -38.5,318.2 26.797,466.29 65.207,148.11 183.203,272.31 327.712,345 75,37.81 158.09,62.11 241.89,59.61 18.4,-0.5 36.8,-2.41 54.9,-5.8 64.8,-11.7 126.4,-41.1 171.9,-88.2 80.4,-83.21 100.7,-211 78.3,-324.5 -22.4,-113.61 -81.8,-216.01 -144.2,-313.51 -16,-25.1 -32.5,-50.2 -51.2,-73.3 25.2,-61.39 89,-110.39 157.2,-116.5 79.9,-7.1 156.8,31.71 213.9,89.51 33.3,-44.51 85.6,-76.01 141,-84.2 63.2,-9.4 126.31,8.39 181,42.1 -54.9,-103.5 -72.5,-213.91 -43.6,-313.1 l 0.1,-0.5 z"
         style="fill:none;stroke:#823430;stroke-width:20;stroke-linecap:round;stroke-linejoin:round;stroke-miterlimit:10;stroke-dasharray:none;stroke-opacity:1"
         id="path124" /><path
         d="m 1367.54,3019.28 c -12.2,-15.09 -25.4,-29.29 -40.1,-42.1 -37,-32.3 -85.1,-55 -134.2,-51.79 -71.1,4.6 -130.3,63.8 -152.29,131.59 -22.11,67.81 -12.91,142 6.39,210.71 11.5,41.1 26.5,81.2 40.5,121.49 9.4,27.01 18.4,54.11 25.61,81.81"
         style="fill:none;stroke:#823430;stroke-width:20;stroke-linecap:round;stroke-linejoin:round;stroke-miterlimit:10;stroke-dasharray:none;stroke-opacity:1"
         id="path126" /><path
         d="m 1087.84,3389.18 c -44,2.71 -87.6,13.11 -127.996,30.7"
         style="fill:none;stroke:#823430;stroke-width:20;stroke-linecap:round;stroke-linejoin:round;stroke-miterlimit:10;stroke-dasharray:none;stroke-opacity:1"
         id="path128" /><path
         d="m 1887.84,3314.88 c -25.9,-96.59 -53.2,-195.2 -110.8,-276.79 -11.4,-16.2 -24.3,-31.61 -38.4,-45.8 -57.1,-57.8 -134,-96.61 -213.9,-89.51 -68.2,6.11 -132,55.11 -157.2,116.5 18.7,23.1 35.2,48.2 51.2,73.3 62.4,97.5 121.8,199.9 144.2,313.51 22.4,113.5 2.1,241.29 -78.3,324.5 -45.5,47.1 -107.1,76.5 -171.9,88.2 45.1,114.39 173,194.5 298.3,185.3 87.2,-6.3 167.6,-50.91 226.5,-115.8 40.7,-44.8 71.1,-99.2 86.6,-157.5 36.2,-136.11 0.2,-279.91 -36.3,-415.91 z"
         style="fill:none;stroke:#823430;stroke-width:20;stroke-linecap:round;stroke-linejoin:round;stroke-miterlimit:10;stroke-dasharray:none;stroke-opacity:1"
         id="path130" /><path
         d="m 2330.24,3631.09 c 0.61,-95.1 -20.3,-189 -43.2,-281.3 -17.1,-68.8 -36,-138.5 -64.9,-202.9 -0.79,-2.01 -1.7,-4 -2.7,-6.01 -15.4,-33.7 -33.7,-65.9 -55.9,-95.8 -27.8,-37.3 -63.1,-70.29 -102.9,-94.89 -54.69,-33.71 -117.8,-51.5 -181,-42.1 -55.4,8.19 -107.7,39.69 -141,84.2 14.1,14.19 27,29.6 38.4,45.8 57.6,81.59 84.9,180.2 110.8,276.79 36.5,136 72.5,279.8 36.3,415.91 -15.5,58.3 -45.9,112.7 -86.6,157.5 27.6,63.7 91.9,112.9 162.1,122.59 94.3,13.01 190.4,-36.39 248.5,-111.7 8.5,-11.09 16.3,-22.59 23.3,-34.59 41.11,-69.4 58.4,-152.41 58.8,-233.5 z"
         style="fill:none;stroke:#823430;stroke-width:20;stroke-linecap:round;stroke-linejoin:round;stroke-miterlimit:10;stroke-dasharray:none;stroke-opacity:1"
         id="path132" /><path
         d="m 2724.65,2971.99 c -18.91,-68.1 -71.11,-130.91 -140.51,-143.5 -53.8,-9.71 -109.4,11.79 -152.39,45.4 -43.01,33.6 -75.71,78.4 -107.71,122.7 -8.09,11.19 -16.2,22.3 -24.2,33.49 -8.49,11.6 -16.9,23.21 -25.3,34.8 -18.3,25.31 -36.7,50.71 -55.1,76 1,2.01 1.91,4 2.7,6.01 28.9,64.4 47.8,134.1 64.9,202.9 22.9,92.3 43.81,186.2 43.2,281.3 -0.4,81.09 -17.69,164.1 -58.8,233.5 37.41,10.8 81.11,5.7 116.2,-12.5 57.1,-29.5 96,-84.61 129.3,-139.61 71.6,-118.09 127.8,-245.39 167,-377.69 9.91,-33.01 18.7,-66.41 26.3,-100 3.8,-16.3 7.2,-32.7 10.4,-49.11 0.31,-1.29 0.5,-2.59 0.8,-3.9 13.4,-69.3 22.1,-141.8 3.21,-209.79 z"
         style="fill:none;stroke:#823430;stroke-width:20;stroke-linecap:round;stroke-linejoin:round;stroke-miterlimit:10;stroke-dasharray:none;stroke-opacity:1"
         id="path134" /><path
         d="m 2050.04,2503.69 c -0.1,-0.2 -0.2,-0.2 -0.4,-0.2"
         style="fill:none;stroke:#823430;stroke-width:20;stroke-linecap:round;stroke-linejoin:round;stroke-miterlimit:10;stroke-dasharray:none;stroke-opacity:1"
         id="path136" /><path
         d="m 1098.04,2648.98 c 163.4,-142.7 398.7,-206.69 630.2,-200.89"
         style="fill:none;stroke:#823430;stroke-width:20;stroke-linecap:round;stroke-linejoin:round;stroke-miterlimit:10;stroke-dasharray:none;stroke-opacity:1"
         id="path138" /><path
         d="m 1415.24,1878.78 c -390.5,-75.3 -1143.498,348.21 -1199.896,545.5 -56.496,197.31 192.703,179.3 192.703,179.3 -7.902,-10.89 -15.805,-21.89 -23.703,-32.79 253.398,-322.21 669.696,-509.6 1078.796,-484.41 21.6,40.21 45.4,80 71.1,119.01 71.4,-91.4 168,-271.3 -119,-326.61 z"
         style="fill:none;stroke:#823430;stroke-width:20;stroke-linecap:round;stroke-linejoin:round;stroke-miterlimit:10;stroke-dasharray:none;stroke-opacity:1"
         id="path140" /><path
         d="m 3161.84,2977.29 c 3.8,-192.9 -142.19,-405.51 -379.5,-524.2 -267.69,-133.81 -561.3,-102.81 -700,61.99 -16.39,19.41 -30.6,40.71 -42.3,63.9 -0.4,0.61 -0.8,1.3 -1.1,2.01 -9,17.99 -16.3,36.59 -21.8,55.6 l -0.1,0.5 c -28.9,99.19 -11.3,209.6 43.6,313.1 39.8,24.6 75.1,57.59 102.9,94.89 22.2,29.9 40.5,62.1 55.9,95.8 18.4,-25.29 36.8,-50.69 55.1,-76 -59.3,-55.49 -103,-119.6 -127.4,-185.29 0,0 -0.1,0 -0.1,-0.1 -30.9,-82.71 -31.4,-167.8 5.5,-241.71 87.3,-174.6 350.5,-219.89 588.1,-101.19 237.5,118.69 359.3,356.5 272,531.1 -18.3,36.59 -44.4,67.5 -76.29,92.39 -59.11,46.21 -138.4,71.81 -226.11,74.71 -7.6,33.59 -16.39,66.99 -26.3,100 196,11.4 368.7,-63.11 442.3,-210.4 7.4,-14.8 13.6,-30 18.7,-45.5 l 0.6,-2.21 10.9,-43.89 0.1,-0.61 c 3.2,-18.09 5,-36.39 5.3,-54.89 z"
         style="fill:none;stroke:#823430;stroke-width:20;stroke-linecap:round;stroke-linejoin:round;stroke-miterlimit:10;stroke-dasharray:none;stroke-opacity:1"
         id="path142" /><path
         d="m 3156.44,3032.79 -10.9,43.89 c 4.6,-14.3 8.2,-29.1 10.9,-43.89 z"
         style="fill:none;stroke:#823430;stroke-width:20;stroke-linecap:round;stroke-linejoin:round;stroke-miterlimit:10;stroke-dasharray:none;stroke-opacity:1"
         id="path144" /><path
         d="m 2819.04,2303.98 c -300.3,-150.1 -633.09,-92.79 -743.4,127.91 -8.6,17.2 -15.6,34.89 -21,52.99 l -4.6,18.81 -3.8,15 -29.1,117.9 c 5.5,-19.01 12.8,-37.61 21.8,-55.6 0.3,-0.71 0.7,-1.4 1.1,-2.01 11.7,-23.19 25.91,-44.49 42.3,-63.9 138.7,-164.8 432.31,-195.8 700,-61.99 237.31,118.69 383.3,331.3 379.5,524.2 -0.3,18.5 -2.1,36.8 -5.3,54.89 l 27.5,-110.19 c 64.1,-213.61 -88.3,-479.7 -365,-618.01 z"
         style="fill:none;stroke:#823430;stroke-width:20;stroke-linecap:round;stroke-linejoin:round;stroke-miterlimit:10;stroke-dasharray:none;stroke-opacity:1"
         id="path146" /><path
         d="m 2054.64,2484.88 c -1.9,6.11 -3.6,12.3 -5,18.61 -1.3,5 -2.4,10.09 -3.4,15.2 l 3.8,-15 z"
         style="fill:none;stroke:#823430;stroke-width:20;stroke-linecap:round;stroke-linejoin:round;stroke-miterlimit:10;stroke-dasharray:none;stroke-opacity:1"
         id="path148" /><path
         d="m 2740.64,2536.59 c -237.6,-118.7 -500.8,-73.41 -588.1,101.19 -36.9,73.91 -36.4,159 -5.5,241.71 0,0.1 0.1,0.1 0.1,0.1 24.4,65.69 68.1,129.8 127.4,185.29 8.4,-11.59 16.81,-23.2 25.3,-34.8 8,-11.19 16.11,-22.3 24.2,-33.49 32,-44.3 64.7,-89.1 107.71,-122.7 42.99,-33.61 98.59,-55.11 152.39,-45.4 69.4,12.59 121.6,75.4 140.51,143.5 18.89,67.99 10.19,140.49 -3.21,209.79 -0.3,1.31 -0.49,2.61 -0.8,3.9 -3.2,16.41 -6.6,32.81 -10.4,49.11 87.71,-2.9 167,-28.5 226.11,-74.71 31.89,-24.89 57.99,-55.8 76.29,-92.39 87.3,-174.6 -34.5,-412.41 -272,-531.1 z"
         style="fill:none;stroke:#823430;stroke-width:20;stroke-linecap:round;stroke-linejoin:round;stroke-miterlimit:10;stroke-dasharray:none;stroke-opacity:1"
         id="path150" /><path
         d="m 2054.94,2483.69 -0.3,1.19"
         style="fill:none;stroke:#823430;stroke-width:20;stroke-linecap:round;stroke-linejoin:round;stroke-miterlimit:10;stroke-dasharray:none;stroke-opacity:1"
         id="path152" /><path
         d="m 3325.64,1961.88 -549.1,-491.7 c -25,-22.39 -63.4,-20.29 -85.8,4.71 -10.4,11.6 -15.5,25.99 -15.5,40.4 0,16.7 6.91,33.4 20.3,45.4 l 549,491.8 c 25,22.29 63.5,20.19 85.8,-4.81 10.4,-11.59 15.51,-26.09 15.51,-40.5 0,-16.7 -6.81,-33.3 -20.21,-45.3 z m -283.3,371.01 -1231.8,-924.7 1207.1,-229.41 1154.11,1002.31 z"
         style="fill:none;stroke:#013237;stroke-width:20;stroke-linecap:round;stroke-linejoin:round;stroke-miterlimit:10;stroke-dasharray:none;stroke-opacity:1"
         id="path154" /><path
         d="m 3017.64,1178.78 -7.1,-237.69 -56.4,10.101 -1014.5,182.099 -76.1,13.7 -53,261.2 z"
         style="fill:none;stroke:#013237;stroke-width:20;stroke-linecap:round;stroke-linejoin:round;stroke-miterlimit:10;stroke-dasharray:none;stroke-opacity:1"
         id="path156" /><path
         d="m 4171.75,2181.09 -63.51,-268.2 -78.19,-69.2 -1019.51,-902.6 7.1,237.69 z"
         style="fill:none;stroke:#013237;stroke-width:20;stroke-linecap:round;stroke-linejoin:round;stroke-miterlimit:10;stroke-dasharray:none;stroke-opacity:1"
         id="path158" /><path
         d="m 2954.14,951.191 v -712.41 l -807.1,164.699 -207.4,729.81 z"
         style="fill:none;stroke:#013237;stroke-width:20;stroke-linecap:round;stroke-linejoin:round;stroke-miterlimit:10;stroke-dasharray:none;stroke-opacity:1"
         id="path160" /><path
         d="m 2954.14,951.191 v 0.09"
         style="fill:none;stroke:#013237;stroke-width:20;stroke-linecap:round;stroke-linejoin:round;stroke-miterlimit:10;stroke-dasharray:none;stroke-opacity:1"
         id="path162" /><path
         d="m 4030.05,1843.69 -64.2,-590.8 L 2954.14,238.781 v 712.41 l 56.4,-10.101 z"
         style="fill:none;stroke:#013237;stroke-width:20;stroke-linecap:round;stroke-linejoin:round;stroke-miterlimit:10;stroke-dasharray:none;stroke-opacity:1"
         id="path164" /><path
         d="m 3077.99,3411.5 c -102.62,47.36 -179.51,146.84 -199.48,258.08 -6.93,38.66 -3.45,86.12 30.19,106.38 28.48,17.14 67.17,5.52 90.85,-17.8 23.68,-23.31 35.86,-55.57 47.36,-86.75 0.33,29.62 -2.33,60.56 9.51,87.71 11.85,27.15 38.05,50.31 67.65,49.12 22.83,-0.91 43.33,-16.18 55.46,-35.55 12.13,-19.37 17.01,-42.38 19.57,-65.09 12.19,-108.08 -45.56,-217.86 -121.11,-296.1 z"
         style="fill:none;stroke:#823430;stroke-width:20;stroke-linecap:round;stroke-linejoin:round;stroke-miterlimit:10;stroke-dasharray:none;stroke-opacity:1"
         id="path166" /><path
         d="m 3648.7,2378.9 c -34.21,73.43 -32.88,155.99 3.46,214.2 12.62,20.23 34.47,38.86 60.77,30.18 22.25,-7.34 37.79,-32.34 40.47,-54.62 2.67,-22.28 -4.5,-42.46 -11.57,-61.82 12.67,12.57 24.3,27.26 42,32.83 17.69,5.56 41.29,1.98 56.41,-13.83 11.67,-12.2 16.06,-29.37 14.3,-43.97 -1.76,-14.61 -8.88,-27.04 -17.1,-38.14 -39.11,-52.82 -115.87,-70.22 -188.74,-64.83 z"
         style="fill:none;stroke:#823430;stroke-width:20;stroke-linecap:round;stroke-linejoin:round;stroke-miterlimit:10;stroke-dasharray:none;stroke-opacity:1"
         id="path168" /><path
         d="m 3333.96,3226.57 c -29.72,54.28 -31.13,123.11 -3.67,178.57 9.54,19.27 26.54,39.03 47.95,36.97 18.12,-1.73 31.36,-19.45 34.18,-37.43 2.82,-17.97 -2.33,-36.14 -7.43,-53.61 9.8,12.93 18.71,27.41 32.77,35.49 14.05,8.09 33.14,9.74 45.77,-0.42 9.76,-7.84 13.8,-21.25 12.83,-33.72 -0.98,-12.48 -6.33,-24.2 -12.6,-35.02 -29.87,-51.54 -91.05,-81.02 -149.8,-90.83 z"
         style="fill:none;stroke:#823430;stroke-width:20;stroke-linecap:round;stroke-linejoin:round;stroke-miterlimit:10;stroke-dasharray:none;stroke-opacity:1"
         id="path170" /><path
         d="m 3345.85,2007.18 c 0,-16.7 -6.81,-33.3 -20.21,-45.3 l -549.1,-491.7 c -25,-22.39 -63.4,-20.29 -85.8,4.71 -10.4,11.6 -15.5,25.99 -15.5,40.4 0,16.7 6.91,33.4 20.3,45.4 l 549,491.8 c 25,22.29 63.5,20.19 85.8,-4.81 10.4,-11.59 15.51,-26.09 15.51,-40.5 z"
         style="fill:none;stroke:#013237;stroke-width:20;stroke-linecap:round;stroke-linejoin:round;stroke-miterlimit:10;stroke-dasharray:none;stroke-opacity:1"
         id="path172" /><path
         d="m 2214.84,2387.6 c 3.48,-24.71 6.95,-49.42 10.43,-74.14"
         style="fill:none;stroke:#823430;stroke-width:20;stroke-linecap:round;stroke-linejoin:round;stroke-miterlimit:10;stroke-dasharray:none;stroke-opacity:1"
         id="path174" /><path
         d="m 2276.55,2362.9 c 4.7,-26.48 9.4,-52.95 14.09,-79.42"
         style="fill:none;stroke:#823430;stroke-width:20;stroke-linecap:round;stroke-linejoin:round;stroke-miterlimit:10;stroke-dasharray:none;stroke-opacity:1"
         id="path176" /><path
         d="m 2346.23,2341.82 c 2.94,-23.53 5.88,-47.06 8.82,-70.59"
         style="fill:none;stroke:#823430;stroke-width:20;stroke-linecap:round;stroke-linejoin:round;stroke-miterlimit:10;stroke-dasharray:none;stroke-opacity:1"
         id="path178" /><path
         d="m 2157.7,2412.2 c 3.74,-22.9 7.47,-45.81 11.21,-68.72"
         style="fill:none;stroke:#823430;stroke-width:20;stroke-linecap:round;stroke-linejoin:round;stroke-miterlimit:10;stroke-dasharray:none;stroke-opacity:1"
         id="path180" /><path
         d="m 2476.38,2339.99 c 2.49,-27.05 4.97,-54.1 7.45,-81.15"
         style="fill:none;stroke:#823430;stroke-width:20;stroke-linecap:round;stroke-linejoin:round;stroke-miterlimit:10;stroke-dasharray:none;stroke-opacity:1"
         id="path182" /><path
         d="m 1319.65,3580.27 c 46.17,26.21 102.83,33.28 154.02,19.23"
         style="fill:none;stroke:#823430;stroke-width:20;stroke-linecap:round;stroke-linejoin:round;stroke-miterlimit:10;stroke-dasharray:none;stroke-opacity:1"
         id="path184" /><path
         d="m 1716.25,3735.4 c 18.61,23 45.92,38.78 75.13,43.42 29.22,4.63 60.07,-1.92 84.88,-18.03"
         style="fill:none;stroke:#823430;stroke-width:20;stroke-linecap:round;stroke-linejoin:round;stroke-miterlimit:10;stroke-dasharray:none;stroke-opacity:1"
         id="path186" /><path
         d="m 2113.37,3776.72 c 12,22.33 33.7,39.23 58.29,45.39 24.59,6.17 51.69,1.51 72.81,-12.52"
         style="fill:none;stroke:#823430;stroke-width:20;stroke-linecap:round;stroke-linejoin:round;stroke-miterlimit:10;stroke-dasharray:none;stroke-opacity:1"
         id="path188" /><path
         d="m 3662.53,1172.07 c -11.85,90.7 -67.56,144.65 -124.45,120.5 -56.88,-24.15 -93.39,-117.25 -81.55,-207.97 11.84,-90.702 67.55,-144.651 124.43,-120.498 56.89,24.148 93.4,117.258 81.57,207.968 z"
         style="fill:none;stroke:#013237;stroke-width:20;stroke-linecap:round;stroke-linejoin:round;stroke-miterlimit:10;stroke-dasharray:none;stroke-opacity:1"
         id="path190" /><path
         d="m 3516.49,1057.93 3.32,-2.06 c 33.12,-20.45 71.83,-2.61 95.25,43.91 v 0"
         style="fill:none;stroke:#013237;stroke-width:20;stroke-linecap:round;stroke-linejoin:round;stroke-miterlimit:10;stroke-dasharray:none;stroke-opacity:1"
         id="path192" /><path
         d="m 3533.19,1138.15 c 1.15,-8.86 -2.41,-17.95 -7.97,-20.31 -5.54,-2.36 -10.98,2.91 -12.15,11.76 -1.15,8.86 2.42,17.95 7.97,20.32 5.56,2.35 11,-2.91 12.15,-11.77"
         style="fill:#823430;fill-opacity:1;fill-rule:nonzero;stroke:none"
         id="path194" /><path
         d="m 3533.19,1138.15 c 1.15,-8.86 -2.41,-17.95 -7.97,-20.31 -5.54,-2.36 -10.98,2.91 -12.15,11.76 -1.15,8.86 2.42,17.95 7.97,20.32 5.56,2.35 11,-2.91 12.15,-11.77 z"
         style="fill:none;stroke:#013237;stroke-width:10;stroke-linecap:butt;stroke-linejoin:miter;stroke-miterlimit:10;stroke-dasharray:none;stroke-opacity:1"
         id="path196" /><path
         d="m 3594.34,1164.12 c 1.17,-8.87 -2.4,-17.96 -7.96,-20.32 -5.55,-2.36 -10.99,2.91 -12.15,11.77 -1.16,8.86 2.41,17.95 7.97,20.31 5.55,2.36 10.99,-2.91 12.14,-11.76"
         style="fill:#823430;fill-opacity:1;fill-rule:nonzero;stroke:none"
         id="path198" /><path
         d="m 3594.34,1164.12 c 1.17,-8.87 -2.4,-17.96 -7.96,-20.32 -5.55,-2.36 -10.99,2.91 -12.15,11.77 -1.16,8.86 2.41,17.95 7.97,20.31 5.55,2.36 10.99,-2.91 12.14,-11.76 z"
         style="fill:none;stroke:#013237;stroke-width:10;stroke-linecap:butt;stroke-linejoin:miter;stroke-miterlimit:10;stroke-dasharray:none;stroke-opacity:1"
         id="path200" /><path
         d="m 3522.07,1272.36 c 13.67,-13.92 32.91,-12.9 46.98,2.48 6.45,7.04 11.88,17.03 14.5,28.77 2.63,11.73 2.22,25.21 -1.87,35.17 -4.09,9.98 -12.02,15.71 -19.49,12.87 -4.98,-1.89 -9.71,-8 -10.82,-16.05 -1.09,-8.05 2.59,-17.08 7.64,-16.75"
         style="fill:none;stroke:#013237;stroke-width:20;stroke-linecap:round;stroke-linejoin:round;stroke-miterlimit:10;stroke-dasharray:none;stroke-opacity:1"
         id="path202" /><path
         d="m 3429.71,3049.9 c 73.73,36.08 147.46,72.15 221.18,108.24"
         style="fill:none;stroke:#823430;stroke-width:20;stroke-linecap:round;stroke-linejoin:round;stroke-miterlimit:10;stroke-dasharray:none;stroke-opacity:1"
         id="path204" /><path
         d="m 3448.02,2817.98 c 69.04,-7.59 138.09,-15.18 207.13,-22.77"
         style="fill:none;stroke:#823430;stroke-width:20;stroke-linecap:round;stroke-linejoin:round;stroke-miterlimit:10;stroke-dasharray:none;stroke-opacity:1"
         id="path206" /><path
         d="m 474.441,3208.16 c -0.902,183.25 72.418,365.8 199.825,497.52"
         style="fill:none;stroke:#823430;stroke-width:20;stroke-linecap:round;stroke-linejoin:round;stroke-miterlimit:10;stroke-dasharray:none;stroke-opacity:1"
         id="path208" /></g></g></svg>
