<svg width="160" height="145" viewBox="0 0 160 145" fill="none" xmlns="http://www.w3.org/2000/svg">
<path d="M31.3062 118.385C16.8702 109.476 5.88738 95.36 1.78597 79.3811C0.988127 76.2522 0.452078 73.0636 0.190286 69.8512C-0.233568 64.6682 0.0531546 59.4374 1.02553 54.3381C1.49924 51.6391 2.28462 48.9879 3.2196 46.3964C3.75565 44.9872 4.2917 43.59 4.91501 42.2047C6.09931 39.5415 7.44567 36.9381 8.91669 34.4063C9.6522 33.1404 10.4251 31.8984 11.2354 30.6684C12.0208 29.4622 12.9433 28.4352 13.9157 27.3604C17.2566 23.6463 20.9591 20.2427 24.9733 17.2094C28.9874 14.1641 33.2883 11.4771 37.8136 9.19608C42.3388 6.9151 47.0885 5.02821 51.9753 3.58319C56.8371 2.15011 61.8486 1.1589 66.9099 0.645376C78.1794 -0.501088 89.6858 0.752857 100.444 4.12059C111.053 7.44056 120.951 12.7668 129.291 19.8845C107.812 12.4086 82.1312 12.7191 63.8058 25.8079C50.3297 35.4334 42.2765 51.0062 40.0949 66.9731C38.3122 79.9544 40.2943 93.7 47.4999 104.83C54.7054 115.96 67.5457 124.045 81.2087 124.153C72.2205 128.046 62.1602 128.595 52.4615 126.709C44.9817 125.252 37.7138 122.338 31.3186 118.385H31.3062Z" fill="#00897B"/>
<path d="M159.599 69.7453C162.229 91.5758 151.72 113.466 134.13 127.212C119.62 138.545 100.771 144.385 82.0463 144.409C63.6336 144.433 44.6225 138.569 31.9941 125.731C44.236 130.496 57.6373 132.872 70.7643 131.463C83.8913 130.054 96.7191 124.704 105.932 115.64C124.494 97.3798 128.059 63.798 113.162 42.5765C107.228 34.1094 97.4421 24.675 87.4317 21.1759C85.0008 20.328 84.2778 20.7221 87.9678 20.2683C104.461 18.2142 122.013 21.0923 135.601 30.2879C143.592 35.6977 149.925 43.1736 154.139 51.6288C156.969 57.3253 158.839 63.4875 159.599 69.7572V69.7453Z" fill="#2D2D2D"/>
</svg>
